<?xml version="1.0" standalone="no"?>
<!DOCTYPE svg PUBLIC "-//W3C//DTD SVG 20010904//EN"
 "http://www.w3.org/TR/2001/REC-SVG-20010904/DTD/svg10.dtd">
<svg version="1.0" xmlns="http://www.w3.org/2000/svg"
 width="512.000000pt" height="512.000000pt" viewBox="0 0 512.000000 512.000000"
 preserveAspectRatio="xMidYMid meet">
<metadata>
Created by potrace 1.14, written by Peter Selinger 2001-2017
</metadata>
<g transform="translate(0.000000,512.000000) scale(0.100000,-0.100000)"
fill="#000000" stroke="none">
<path d="M0 2560 l0 -2560 2560 0 2560 0 0 2560 0 2560 -2560 0 -2560 0 0
-2560z m1708 1573 l-3 -208 -85 -7 c-139 -10 -223 -51 -249 -121 -16 -42 -14
-96 19 -402 42 -392 39 -478 -19 -598 -62 -129 -221 -229 -435 -276 -72 -16
-78 -19 -51 -26 17 -4 66 -16 110 -27 173 -42 311 -131 368 -236 66 -122 70
-222 27 -627 -16 -154 -30 -302 -30 -328 0 -61 29 -119 74 -146 41 -26 151
-51 224 -51 l52 0 0 -205 0 -205 -104 0 c-126 0 -303 22 -406 51 -269 74 -394
238 -392 514 0 55 14 231 32 390 17 160 30 317 27 350 -13 173 -145 262 -421
283 l-91 7 -3 236 -2 236 92 8 c239 18 375 90 413 219 20 68 19 95 -16 418
-36 325 -40 464 -15 557 70 268 317 388 824 400 l62 1 -2 -207z m2100 181
c295 -42 456 -148 521 -342 37 -109 37 -202 -3 -577 -30 -279 -34 -350 -26
-394 29 -155 144 -228 398 -254 l112 -11 0 -238 0 -238 -57 0 c-197 0 -380
-75 -427 -174 -38 -81 -38 -123 -1 -471 39 -368 41 -420 20 -518 -59 -280
-278 -407 -732 -424 l-153 -6 0 206 0 207 42 0 c112 0 233 41 270 91 38 51 38
86 2 428 -40 365 -40 457 -3 556 67 182 192 264 514 341 27 6 22 8 -39 20
-156 30 -306 97 -381 170 -78 75 -125 203 -125 339 0 33 16 204 34 381 25 226
32 332 26 359 -10 43 -34 80 -71 107 -34 25 -132 48 -206 48 l-63 0 0 211 0
211 123 -7 c67 -3 168 -13 225 -21z m-926 -497 c117 -31 242 -88 321 -148 217
-163 287 -462 166 -709 -55 -111 -146 -201 -337 -334 -227 -158 -285 -234
-298 -393 l-7 -83 -268 0 -269 0 0 83 c1 224 77 399 232 534 31 27 108 86 170
130 175 126 218 180 218 278 0 89 -68 167 -170 195 -56 16 -219 12 -281 -6
-86 -25 -183 -81 -254 -146 l-65 -60 -182 142 c-101 78 -184 145 -186 149 -4
13 159 164 226 210 126 85 309 156 467 181 33 5 141 7 240 5 153 -2 194 -7
277 -28z m-312 -2029 c93 -28 164 -92 209 -188 37 -78 37 -191 -1 -271 -32
-69 -90 -129 -160 -166 -47 -25 -64 -28 -148 -28 -79 0 -103 4 -141 23 -74 36
-125 87 -161 159 -29 59 -33 77 -33 148 0 66 5 90 26 136 77 164 240 238 409
187z"/>
</g>
</svg>
